# xmcd
#
# Track frame offsets: 
#        150
#        17715
#        32101
#        50079
#        71414
#        91485
#        106530
#        123660
#        135908
#        154046
#        168458
#
# Disc length: 2465 seconds
#
# Revision: 0
# Processed by: cddbd v1.5.2PL0 Copyright (c) Steve Scherf et al.
# Submitted via: ExactAudioCopy v0.95a5
#
DISCID=89099f0b
DTITLE=Andy Hall - Sound Of The Slide Guitar
DYEAR=2008
DGENRE=Bluegrass
TTITLE0=Resurrection Bay
TTITLE1=The Chase
TTITLE2=Paples Blues
TTITLE3=Circle The Sun
TTITLE4=Deep Elem Blues
TTITLE5=Velocity
TTITLE6=Fresh Flowers
TTITLE7=C-BOPS (Special Ops)
TTITLE8=Always You
TTITLE9=One More Moment Here With You
TTITLE10=Green Light On The Southern/Bonny Crossing The Alps
EXTD=
EXTT0=
EXTT1=
EXTT2=
EXTT3=
EXTT4=
EXTT5=
EXTT6=
EXTT7=
EXTT8=
EXTT9=
EXTT10=
PLAYORDER=
